<?xml version="1.0" encoding="iso-8859-1"?>
<!-- Generator: Adobe Illustrator 19.0.0, SVG Export Plug-In . SVG Version: 6.00 Build 0)  -->
<svg version="1.1" id="Layer_1" xmlns="http://www.w3.org/2000/svg" xmlns:xlink="http://www.w3.org/1999/xlink" x="0px" y="0px"
	 viewBox="0 0 512 512" style="enable-background:new 0 0 512 512;" xml:space="preserve">
<g>
	<path style="fill:#D75A4A;" d="M0,256C0,114.617,114.617,0,256,0s256,114.617,256,256S397.383,512,256,512S0,397.383,0,256"/>
	<g>
		<path style="fill:#F0C419;" d="M150.539,352.634c2.33,0,4.582,0.918,6.241,2.586c1.845,1.845,2.781,4.405,2.551,7.009
			c-0.247,2.816-0.433,5.65-0.433,8.527c0,53.548,43.555,97.103,97.103,97.103c53.539,0,97.103-43.555,97.103-97.103
			c0-2.878-0.194-5.711-0.441-8.527c-0.221-2.604,0.715-5.164,2.56-7.009s4.387-2.737,7-2.551c2.816,0.247,5.658,0.433,8.536,0.433
			c53.539,0,97.103-43.555,97.103-97.103c0-53.539-43.564-97.103-97.103-97.103c-2.878,0-5.72,0.194-8.536,0.441
			c-2.613,0.238-5.155-0.706-7-2.56c-1.845-1.845-2.781-4.405-2.56-7c0.247-2.816,0.441-5.658,0.441-8.536
			c0-53.539-43.564-97.103-97.103-97.103c-53.548,0-97.103,43.564-97.103,97.103c0,2.878,0.185,5.72,0.433,8.536
			c0.23,2.595-0.706,5.155-2.551,7c-1.845,1.854-4.378,2.79-7.009,2.56c-2.816-0.247-5.65-0.441-8.527-0.441
			c-53.548,0-97.103,43.564-97.103,97.103c0,53.548,43.555,97.103,97.103,97.103c2.878,0,5.711-0.185,8.527-0.433
			C150.027,352.643,150.283,352.634,150.539,352.634 M256.002,485.516c-63.285,0-114.759-51.474-114.759-114.759
			c-63.285,0-114.759-51.474-114.759-114.759c0-63.276,51.474-114.759,114.759-114.759c0-63.276,51.474-114.759,114.759-114.759
			c63.276,0,114.759,51.482,114.759,114.759c63.276,0,114.759,51.482,114.759,114.759c0,63.285-51.483,114.759-114.759,114.759
			C370.76,434.042,319.278,485.516,256.002,485.516"/>
		<path style="fill:#F0C419;" d="M212.103,289.781c2.313,0,4.582,0.909,6.268,2.613c2.41,2.428,3.196,6.038,2.022,9.26
			c-2.074,5.65-3.31,10.946-3.972,14.389c-0.627,3.231-0.874,6.276-0.733,9.048c1.916,38.003,28.637,67.072,40.36,78.062
			c11.626-10.946,38.082-39.777,40.342-77.215c0.185-3.054-0.124-6.347-0.936-10.055c-0.768-3.513-2.083-8.845-4.017-14.354
			c-1.13-3.24-0.282-6.833,2.163-9.234c2.454-2.392,6.065-3.143,9.278-1.951c4.396,1.651,9.322,3.054,14.239,4.034
			c3.222,0.653,6.259,0.9,9.004,0.759c37.614-1.986,66.383-29.122,77.144-40.881c-10.743-11.688-39.362-38.638-76.535-40.872
			c-2.931-0.159-6.118,0.124-9.71,0.9c-3.496,0.759-8.801,2.074-14.274,4.034c-3.222,1.165-6.833,0.335-9.242-2.101
			c-2.41-2.428-3.204-6.038-2.013-9.251c1.624-4.449,3.019-9.41,4.025-14.345c0.671-3.337,0.936-6.479,0.786-9.34
			c-2.013-37.817-28.831-64.945-40.254-74.858c-11.441,9.86-38.276,36.838-40.448,74.478c-0.177,2.966,0.115,6.17,0.874,9.772
			c0.742,3.522,2.03,8.881,3.964,14.415c1.13,3.24,0.291,6.833-2.163,9.234c-2.454,2.392-6.082,3.151-9.278,1.942
			c-5.561-2.083-10.734-3.337-14.098-4.025c-3.24-0.653-6.285-0.892-9.066-0.768c-37.429,2.004-66.278,29.14-77.091,40.898
			c10.496,11.414,37.994,37.332,73.825,40.651c4.414,0.424,8.898,0.106,13.356-0.918c4.608-1.05,9.181-2.366,13.206-3.805
			C210.099,289.948,211.106,289.781,212.103,289.781 M256.056,423.721c-1.907,0-3.831-0.618-5.42-1.863
			c-2.03-1.58-49.735-39.362-52.577-95.876c-0.221-4.193,0.132-8.66,1.024-13.294c0.079-0.397,0.159-0.812,0.247-1.254
			c-6.118,1.342-12.288,1.748-18.397,1.165c-53.742-4.97-89.362-50.926-90.845-52.877c-2.419-3.16-2.419-7.539,0-10.708
			c1.554-2.048,38.886-50.185,94.799-53.169c4.264-0.221,8.819,0.141,13.524,1.095c0.3,0.071,0.627,0.132,0.962,0.203
			c-0.062-0.283-0.124-0.565-0.177-0.839c-1.086-5.146-1.483-9.869-1.227-14.415c3.257-56.364,50.979-90.571,53.01-92.01
			c3.054-2.145,7.133-2.136,10.178,0.018c2.03,1.439,49.752,35.849,52.771,92.442c0.238,4.343-0.141,8.986-1.103,13.789
			c-0.079,0.353-0.15,0.697-0.221,1.05c0.221-0.053,0.441-0.097,0.653-0.141c5.182-1.13,9.94-1.562,14.521-1.271
			c55.543,3.337,92.584,51.094,94.137,53.124c2.41,3.169,2.41,7.548,0,10.708c-1.563,2.048-38.921,50.22-94.87,53.169
			c-4.228,0.23-8.739-0.132-13.409-1.077c-0.362-0.071-0.724-0.141-1.077-0.221c0.053,0.221,0.097,0.433,0.141,0.636
			c1.165,5.314,1.598,10.196,1.306,14.892c-3.381,55.967-50.52,93.299-52.524,94.861
			C259.896,423.104,257.971,423.721,256.056,423.721"/>
		<path style="fill:#F0C419;" d="M256,203.034c-4.873,0-8.828-3.955-8.828-8.828v-44.138c0-4.873,3.955-8.828,8.828-8.828
			s8.828,3.955,8.828,8.828v44.138C264.828,199.08,260.873,203.034,256,203.034"/>
		<path style="fill:#F0C419;" d="M256,370.759c-4.873,0-8.828-3.955-8.828-8.828v-44.138c0-4.873,3.955-8.828,8.828-8.828
			s8.828,3.955,8.828,8.828v44.138C264.828,366.804,260.873,370.759,256,370.759"/>
		<path style="fill:#F0C419;" d="M361.931,264.828h-44.138c-4.873,0-8.828-3.955-8.828-8.828c0-4.873,3.955-8.828,8.828-8.828
			h44.138c4.873,0,8.828,3.955,8.828,8.828C370.759,260.873,366.804,264.828,361.931,264.828"/>
		<path style="fill:#F0C419;" d="M194.207,264.828h-44.138c-4.873,0-8.828-3.955-8.828-8.828c0-4.873,3.955-8.828,8.828-8.828
			h44.138c4.873,0,8.828,3.955,8.828,8.828C203.034,260.873,199.08,264.828,194.207,264.828"/>
	</g>
</g>
<g>
</g>
<g>
</g>
<g>
</g>
<g>
</g>
<g>
</g>
<g>
</g>
<g>
</g>
<g>
</g>
<g>
</g>
<g>
</g>
<g>
</g>
<g>
</g>
<g>
</g>
<g>
</g>
<g>
</g>
</svg>
