<?xml version="1.0" encoding="iso-8859-1"?>
<!-- Generator: Adobe Illustrator 19.0.0, SVG Export Plug-In . SVG Version: 6.00 Build 0)  -->
<svg version="1.1" id="Layer_1" xmlns="http://www.w3.org/2000/svg" xmlns:xlink="http://www.w3.org/1999/xlink" x="0px" y="0px"
	 viewBox="0 0 498.215 498.215" style="enable-background:new 0 0 498.215 498.215;" xml:space="preserve">
<path style="fill:#27C4CC;" d="M86.89,431.025c-5.033,0-10.075-1.922-13.926-5.766c-7.696-7.696-7.696-20.157,0-27.845
	L397.407,72.972c7.696-7.696,20.157-7.696,27.845,0s7.696,20.157,0,27.845L100.817,425.251
	C96.973,429.103,91.924,431.025,86.89,431.025z"/>
<path style="fill:#27C4CC;" d="M19.692,268.808C8.814,268.808,0,259.994,0,249.116c0-10.878,8.814-19.692,19.692-19.692
	l458.831-0.016c10.878,0,19.692,8.814,19.692,19.692s-8.814,19.692-19.692,19.692L19.692,268.808z"/>
<path style="fill:#27C4CC;" d="M411.341,431.025c-5.033,0-10.075-1.922-13.926-5.766L72.972,100.825
	c-7.696-7.688-7.696-20.157,0-27.845s20.157-7.696,27.845,0l324.443,324.435c7.696,7.688,7.696,20.157,0,27.845
	C421.415,429.103,416.382,431.025,411.341,431.025z"/>
<circle style="fill:#348BC6;" cx="249.116" cy="249.116" r="83.039"/>
<path style="fill:#27C4CC;" d="M249.108,351.839c-56.627,0-102.723-46.088-102.723-102.723c0-56.651,46.096-102.739,102.723-102.739
	c56.643,0,102.739,46.088,102.739,102.739C351.846,305.751,305.751,351.839,249.108,351.839z M249.108,185.761
	c-34.926,0-63.338,28.42-63.338,63.354c0,34.926,28.412,63.338,63.338,63.338c34.942,0,63.354-28.412,63.354-63.338
	C312.462,214.181,284.05,185.761,249.108,185.761z"/>
<path style="fill:#27C4CC;" d="M249.108,498.215c-10.878,0-19.692-8.814-19.692-19.692V19.692C229.415,8.814,238.23,0,249.108,0
	C259.986,0,268.8,8.814,268.8,19.692v458.831C268.8,489.401,259.986,498.215,249.108,498.215z"/>
<g>
</g>
<g>
</g>
<g>
</g>
<g>
</g>
<g>
</g>
<g>
</g>
<g>
</g>
<g>
</g>
<g>
</g>
<g>
</g>
<g>
</g>
<g>
</g>
<g>
</g>
<g>
</g>
<g>
</g>
</svg>
