<?xml version="1.0" encoding="iso-8859-1"?>
<!-- Generator: Adobe Illustrator 19.0.0, SVG Export Plug-In . SVG Version: 6.00 Build 0)  -->
<svg version="1.1" id="Capa_1" xmlns="http://www.w3.org/2000/svg" xmlns:xlink="http://www.w3.org/1999/xlink" x="0px" y="0px"
	 viewBox="0 0 55.596 55.596" style="enable-background:new 0 0 55.596 55.596;" xml:space="preserve">
<path style="fill:#CBB292;" d="M48.32,34.815H7.68c-0.376,0-0.68-0.304-0.68-0.68v-2.64c0-0.376,0.304-0.68,0.68-0.68h40.64
	c0.376,0,0.68,0.304,0.68,0.68v2.64C49,34.511,48.695,34.815,48.32,34.815z"/>
<path style="fill:#7F5B53;" d="M54.599,3.815H27.972H0.997c-0.77,0-1.248,0.836-0.859,1.5l14.716,25.04
	c0.12,0.204-0.027,0.46-0.263,0.46H7.68c-0.376,0-0.68,0.304-0.68,0.68v2.64c0,0.376,0.304,0.68,0.68,0.68h9.621
	c0.108,0,0.208,0.057,0.263,0.151l9.593,16.323c0.386,0.659,1.339,0.656,1.721-0.005l9.434-16.316
	c0.055-0.094,0.155-0.153,0.264-0.153h9.743c0.376,0,0.68-0.304,0.68-0.68v-2.64c0-0.376-0.304-0.68-0.68-0.68h-7.077
	c-0.235,0-0.382-0.255-0.264-0.458L55.461,5.31C55.845,4.646,55.366,3.815,54.599,3.815z"/>
<g>
	<polygon style="fill:#CBB292;" points="36.003,30.815 49.15,7.815 6,7.815 19.676,30.815 	"/>
	<polygon style="fill:#CBB292;" points="22.054,34.815 28,44.815 33.716,34.815 	"/>
</g>
<g>
</g>
<g>
</g>
<g>
</g>
<g>
</g>
<g>
</g>
<g>
</g>
<g>
</g>
<g>
</g>
<g>
</g>
<g>
</g>
<g>
</g>
<g>
</g>
<g>
</g>
<g>
</g>
<g>
</g>
</svg>
