<?xml version="1.0" encoding="iso-8859-1"?>
<!-- Generator: Adobe Illustrator 18.0.0, SVG Export Plug-In . SVG Version: 6.00 Build 0)  -->
<!DOCTYPE svg PUBLIC "-//W3C//DTD SVG 1.1//EN" "http://www.w3.org/Graphics/SVG/1.1/DTD/svg11.dtd">
<svg version="1.1" id="Capa_1" xmlns="http://www.w3.org/2000/svg" xmlns:xlink="http://www.w3.org/1999/xlink" x="0px" y="0px"
	 viewBox="0 0 488.836 488.836" style="enable-background:new 0 0 488.836 488.836;" xml:space="preserve">
<path d="M244.419,0.001C109.644,0.001,0,109.644,0,244.417s109.644,244.417,244.419,244.417
	c134.772,0,244.417-109.643,244.417-244.417S379.191,0.001,244.419,0.001z M456.095,228.35H323.322v-30.7h80.058
	c5.022,0,9.753-2.346,12.797-6.348c3.037-3.993,4.033-9.187,2.683-14.02c-14.397-51.798-55.508-92.909-107.306-107.306
	c-4.833-1.366-10.042-0.354-14.021,2.682c-4.001,3.044-6.347,7.775-6.347,12.796V228.35h-30.7V32.741
	C364.747,40.587,448.25,124.088,456.095,228.35z M323.322,108.648c24.723,11.997,44.87,32.144,56.867,56.867h-56.867V108.648z
	 M228.35,32.741v132.773h-30.701V85.455c0-5.021-2.346-9.752-6.347-12.796c-3.993-3.02-9.164-4.024-14.021-2.682
	c-51.797,14.397-92.908,55.507-107.305,107.306c-1.35,4.833-0.353,10.026,2.683,14.02c3.044,4.002,7.775,6.348,12.796,6.348H228.35
	v30.7H32.741C40.586,124.088,124.088,40.587,228.35,32.741z M165.513,108.648v56.867h-56.865
	C120.644,140.792,140.791,120.644,165.513,108.648z M165.513,380.188c-24.722-11.996-44.87-32.144-56.865-56.866h56.865V380.188z
	 M32.741,260.486h132.772v30.699H85.456c-5.021,0-9.752,2.346-12.796,6.349c-3.036,3.993-4.033,9.186-2.683,14.02
	c14.397,51.798,55.508,92.908,107.305,107.305c1.413,0.394,2.865,0.59,4.3,0.59c3.476,0,6.896-1.129,9.721-3.272
	c4.001-3.045,6.347-7.775,6.347-12.796V260.486h30.701v195.609C124.088,448.249,40.586,364.748,32.741,260.486z M260.486,456.095
	V323.321h30.7v80.059c0,5.021,2.346,9.751,6.347,12.796c2.825,2.142,6.246,3.272,9.721,3.272c1.437,0,2.887-0.196,4.3-0.59
	c51.797-14.397,92.909-55.507,107.306-107.305c1.35-4.833,0.353-10.027-2.683-14.02c-3.043-4.002-7.775-6.349-12.797-6.349H260.486
	v-30.699h195.609C448.25,364.748,364.747,448.249,260.486,456.095z M323.322,380.188v-56.866h56.867
	C368.192,348.043,348.044,368.191,323.322,380.188z"/>
<g>
</g>
<g>
</g>
<g>
</g>
<g>
</g>
<g>
</g>
<g>
</g>
<g>
</g>
<g>
</g>
<g>
</g>
<g>
</g>
<g>
</g>
<g>
</g>
<g>
</g>
<g>
</g>
<g>
</g>
</svg>
