<?xml version="1.0" encoding="iso-8859-1"?>
<!-- Generator: Adobe Illustrator 19.0.0, SVG Export Plug-In . SVG Version: 6.00 Build 0)  -->
<svg version="1.1" id="Layer_1" xmlns="http://www.w3.org/2000/svg" xmlns:xlink="http://www.w3.org/1999/xlink" x="0px" y="0px"
	 viewBox="0 0 483.123 483.123" style="enable-background:new 0 0 483.123 483.123;" xml:space="preserve">
<path style="fill:#EDCF85;" d="M410.915,19.692c24.663,0,44.646,19.984,44.646,44.631l0,0c0,24.663-19.984,44.646-44.646,44.646
	H72.208c-24.647,0-44.631-19.984-44.631-44.646l0,0c0-24.647,19.984-44.631,44.631-44.631"/>
<path style="fill:#E02C0E;" d="M410.915,128.662H72.208c-35.47,0-64.323-28.861-64.323-64.339C7.885,28.853,36.738,0,72.208,0
	C83.086,0,91.9,8.814,91.9,19.692s-8.814,19.692-19.692,19.692c-13.753,0-24.938,11.185-24.938,24.938
	c0,13.761,11.185,24.954,24.938,24.954h338.708c13.761,0,24.954-11.193,24.954-24.954c0-13.753-11.193-24.938-24.954-24.938
	c-10.878,0-19.692-8.814-19.692-19.692S400.037,0,410.915,0c35.478,0,64.339,28.853,64.339,64.323
	C475.254,99.801,446.393,128.662,410.915,128.662z"/>
<path style="fill:#EDCF85;" d="M74.839,19.692c17.046,0,30.846,13.8,30.846,30.846"/>
<path style="fill:#E02C0E;" d="M105.685,70.231c-10.878,0-19.692-8.814-19.692-19.692c0-6.152-5.002-11.154-11.154-11.154
	c-10.878,0-19.692-8.814-19.692-19.692S63.961,0,74.839,0c27.869,0,50.538,22.67,50.538,50.538
	C125.377,61.416,116.563,70.231,105.685,70.231z"/>
<path style="fill:#EDCF85;" d="M377.439,50.538c0-17.046,13.8-30.846,30.846-30.846"/>
<path style="fill:#E02C0E;" d="M377.439,70.231c-10.878,0-19.692-8.814-19.692-19.692C357.746,22.67,380.416,0,408.285,0
	c10.878,0,19.692,8.814,19.692,19.692s-8.814,19.692-19.692,19.692c-6.152,0-11.154,5.002-11.154,11.154
	C397.131,61.416,388.317,70.231,377.439,70.231z"/>
<path style="fill:#EDCF85;" d="M72.208,463.431c-24.663,0-44.646-19.984-44.646-44.631l0,0c0-24.663,19.984-44.646,44.646-44.646
	h338.708c24.647,0,44.631,19.984,44.631,44.646l0,0c0,24.647-19.984,44.631-44.631,44.631"/>
<path style="fill:#E02C0E;" d="M410.915,483.123c-10.878,0-19.692-8.814-19.692-19.692c0-10.878,8.814-19.692,19.692-19.692
	c13.753,0,24.938-11.185,24.938-24.938c0-13.761-11.185-24.954-24.938-24.954H72.208c-13.761,0-24.954,11.193-24.954,24.954
	c0,13.753,11.193,24.938,24.954,24.938c10.878,0,19.692,8.814,19.692,19.692c0,10.878-8.814,19.692-19.692,19.692
	c-35.478,0-64.339-28.853-64.339-64.323c0-35.478,28.861-64.339,64.339-64.339h338.708c35.462,0,64.323,28.861,64.323,64.339
	C475.238,454.27,446.377,483.123,410.915,483.123z"/>
<path style="fill:#EDCF85;" d="M408.285,463.431c-17.046,0-30.846-13.8-30.846-30.846"/>
<path style="fill:#E02C0E;" d="M408.285,483.123c-27.869,0-50.538-22.67-50.538-50.538c0-10.878,8.814-19.692,19.692-19.692
	c10.878,0,19.692,8.814,19.692,19.692c0,6.152,5.002,11.154,11.154,11.154c10.878,0,19.692,8.814,19.692,19.692
	C427.977,474.309,419.163,483.123,408.285,483.123z"/>
<path style="fill:#EDCF85;" d="M105.685,432.585c0,17.046-13.8,30.846-30.846,30.846"/>
<path style="fill:#E02C0E;" d="M74.839,483.123c-10.878,0-19.692-8.814-19.692-19.692c0-10.878,8.814-19.692,19.692-19.692
	c6.152,0,11.154-5.002,11.154-11.154c0-10.878,8.814-19.692,19.692-19.692s19.692,8.814,19.692,19.692
	C125.377,460.453,102.707,483.123,74.839,483.123z"/>
<path style="fill:#E02C0E;" d="M111.592,391.223c-10.878,0-19.692-8.814-19.692-19.692V111.592c0-10.878,8.814-19.692,19.692-19.692
	s19.692,8.814,19.692,19.692v259.938C131.285,382.409,122.47,391.223,111.592,391.223z"/>
<path style="fill:#E02C0E;" d="M371.531,391.223c-10.878,0-19.692-8.814-19.692-19.692V111.592c0-10.878,8.814-19.692,19.692-19.692
	c10.878,0,19.692,8.814,19.692,19.692v259.938C391.223,382.409,382.409,391.223,371.531,391.223z"/>
<path style="fill:#E02C0E;" d="M183.146,319.677c-5.049,0-10.09-1.922-13.934-5.766c-7.704-7.696-7.704-20.157,0-27.845
	L286.05,169.22c7.696-7.696,20.165-7.696,27.845,0c7.696,7.696,7.696,20.157,0,27.845L197.065,313.911
	C193.213,317.755,188.18,319.677,183.146,319.677z"/>
<path style="fill:#E02C0E;" d="M299.985,319.677c-5.041,0-10.075-1.922-13.934-5.766L169.212,197.065
	c-7.704-7.696-7.704-20.157,0-27.845c7.696-7.696,20.149-7.696,27.845,0l116.838,116.846c7.696,7.696,7.696,20.157,0,27.845
	C310.059,317.755,305.026,319.677,299.985,319.677z"/>
<g>
</g>
<g>
</g>
<g>
</g>
<g>
</g>
<g>
</g>
<g>
</g>
<g>
</g>
<g>
</g>
<g>
</g>
<g>
</g>
<g>
</g>
<g>
</g>
<g>
</g>
<g>
</g>
<g>
</g>
</svg>
