<?xml version="1.0" encoding="iso-8859-1"?>
<!-- Generator: Adobe Illustrator 19.0.0, SVG Export Plug-In . SVG Version: 6.00 Build 0)  -->
<svg version="1.1" id="Capa_1" xmlns="http://www.w3.org/2000/svg" xmlns:xlink="http://www.w3.org/1999/xlink" x="0px" y="0px"
	 viewBox="0 0 57 57" style="enable-background:new 0 0 57 57;" xml:space="preserve">
<path style="fill:#556080;" d="M28.5,57C12.785,57,0,44.215,0,28.5S12.785,0,28.5,0S57,12.785,57,28.5S44.215,57,28.5,57z"/>
<g>
	<path style="fill:#71C285;" d="M26,26V5.194C15.162,6.553,6.553,15.162,5.194,26H26z"/>
	<path style="fill:#71C285;" d="M31,26h20.806C50.447,15.162,41.838,6.553,31,5.194V26z"/>
	<path style="fill:#71C285;" d="M26,31H5.194C6.553,41.838,15.162,50.447,26,51.806V31z"/>
	<path style="fill:#71C285;" d="M31,31v20.806C41.838,50.447,50.447,41.838,51.806,31H31z"/>
</g>
<g>
</g>
<g>
</g>
<g>
</g>
<g>
</g>
<g>
</g>
<g>
</g>
<g>
</g>
<g>
</g>
<g>
</g>
<g>
</g>
<g>
</g>
<g>
</g>
<g>
</g>
<g>
</g>
<g>
</g>
</svg>
