<?xml version="1.0" encoding="iso-8859-1"?>
<!-- Generator: Adobe Illustrator 19.0.0, SVG Export Plug-In . SVG Version: 6.00 Build 0)  -->
<svg version="1.1" id="Layer_1" xmlns="http://www.w3.org/2000/svg" xmlns:xlink="http://www.w3.org/1999/xlink" x="0px" y="0px"
	 viewBox="0 0 512 512" style="enable-background:new 0 0 512 512;" xml:space="preserve">
<path style="fill:#78B9EB;" d="M409.043,422.118c4.534-4.179,8.897-8.541,13.076-13.076l-71.037-113.659l130.598-30.139
	c0.123-3.067,0.203-6.147,0.203-9.246c0-3.099-0.08-6.177-0.203-9.246l-130.598-30.139l71.037-113.661
	c-4.179-4.534-8.541-8.897-13.076-13.076l-113.658,71.037L265.246,30.321c-3.069-0.123-6.147-0.203-9.246-0.203
	c-3.099,0-6.179,0.08-9.246,0.203l-30.139,130.598L102.957,89.883c-4.534,4.179-8.897,8.541-13.076,13.076l71.037,113.659
	L30.321,246.755c-0.123,3.067-0.203,6.146-0.203,9.245c0,3.099,0.08,6.177,0.203,9.246l130.598,30.139L89.882,409.043
	c4.179,4.536,8.54,8.895,13.074,13.076l113.661-71.037l30.137,130.599c3.069,0.124,6.148,0.205,9.246,0.205
	c3.099,0,6.177-0.081,9.246-0.205l30.137-130.598L409.043,422.118z"/>
<path style="fill:#5A8BB0;" d="M481.882,256c0-3.099-0.08-6.177-0.203-9.246l-130.598-30.139l71.037-113.661
	c-4.179-4.534-8.541-8.897-13.076-13.076l-113.658,71.037L265.246,30.321c-3.069-0.123-6.147-0.203-9.246-0.203v451.765
	c3.099,0,6.177-0.081,9.246-0.205l30.137-130.598l113.659,71.037c4.534-4.179,8.897-8.541,13.076-13.076l-71.037-113.659
	l130.598-30.139C481.803,262.177,481.882,259.099,481.882,256z"/>
<path style="fill:#BFE4F8;" d="M256,45.176c56.312,0,109.256,21.93,149.075,61.749S466.824,199.688,466.824,256
	s-21.93,109.256-61.749,149.075c-39.819,39.82-92.762,61.749-149.075,61.749s-109.255-21.93-149.075-61.749
	S45.176,312.312,45.176,256s21.929-109.256,61.749-149.075S199.686,45.176,256,45.176 M256,0C114.616,0,0,114.614,0,256
	s114.616,256,256,256c141.386,0,256-114.614,256-256S397.386,0,256,0L256,0z"/>
<path style="fill:#93C7EF;" d="M256,0v45.176c56.312,0,109.256,21.93,149.075,61.749S466.824,199.688,466.824,256
	s-21.93,109.256-61.749,149.075c-39.819,39.82-92.762,61.749-149.075,61.749V512c141.386,0,256-114.614,256-256S397.386,0,256,0z"/>
<path style="fill:#1E2E3B;" d="M266.687,256c0-23.108,16.807-42.284,38.861-45.987c-10.497-8.883-24.063-14.249-38.861-14.249
	c-33.215,0-60.235,27.019-60.235,60.235c0,33.214,27.02,60.235,60.235,60.235c14.798,0,28.362-5.365,38.861-14.252
	C283.494,298.284,266.687,279.106,266.687,256z"/>
<g>
</g>
<g>
</g>
<g>
</g>
<g>
</g>
<g>
</g>
<g>
</g>
<g>
</g>
<g>
</g>
<g>
</g>
<g>
</g>
<g>
</g>
<g>
</g>
<g>
</g>
<g>
</g>
<g>
</g>
</svg>
