<?xml version="1.0" encoding="iso-8859-1"?>
<!-- Generator: Adobe Illustrator 19.0.0, SVG Export Plug-In . SVG Version: 6.00 Build 0)  -->
<svg version="1.1" id="Layer_1" xmlns="http://www.w3.org/2000/svg" xmlns:xlink="http://www.w3.org/1999/xlink" x="0px" y="0px"
	 viewBox="0 0 512 512" style="enable-background:new 0 0 512 512;" xml:space="preserve">
<g>
	<path style="fill:#D75A4A;" d="M512,256c0,141.383-114.617,256-256,256S0,397.383,0,256S114.617,0,256,0S512,114.617,512,256"/>
	<g>
		<path style="fill:#F0C419;" d="M256,256c-58.854-58.854-58.854-135.353,0-194.207C314.854,120.647,314.854,197.146,256,256"/>
		<path style="fill:#F0C419;" d="M256,450.207c-58.854-58.854-58.854-135.353,0-194.207
			C314.854,314.854,314.854,391.353,256,450.207"/>
		<path style="fill:#F0C419;" d="M256,256c58.854-58.854,135.353-58.854,194.207,0C391.353,314.854,314.854,314.854,256,256"/>
		<path style="fill:#F0C419;" d="M61.793,256c58.854-58.854,135.353-58.854,194.207,0C197.146,314.854,120.647,314.854,61.793,256"
			/>
	</g>
	<g>
		<path style="fill:#C49A16;" d="M361.461,212.317c20.365-23.508,31.868-55.455,31.868-93.643
			c-38.188,0-70.135,11.502-93.643,31.868c2.622,36.59-11.838,73.613-43.688,105.454
			C287.848,224.154,324.871,209.695,361.461,212.317"/>
		<path style="fill:#C49A16;" d="M299.683,361.461c23.508,20.365,55.455,31.868,93.643,31.868c0-38.188-11.502-70.135-31.868-93.643
			c-36.59,2.622-73.613-11.838-105.454-43.688C287.846,287.848,302.305,324.862,299.683,361.461"/>
		<path style="fill:#C49A16;" d="M256,256c-31.85,31.85-68.864,46.31-105.463,43.679c-20.365,23.517-31.859,55.464-31.859,93.643
			c38.179,0,70.126-11.493,93.643-31.859C209.69,324.864,224.15,287.85,256,256"/>
		<path style="fill:#C49A16;" d="M256,256c-31.85-31.85-46.31-68.864-43.679-105.463c-23.517-20.365-55.464-31.859-93.643-31.859
			c0,38.179,11.494,70.126,31.859,93.643C187.136,209.69,224.15,224.15,256,256"/>
	</g>
</g>
<g>
</g>
<g>
</g>
<g>
</g>
<g>
</g>
<g>
</g>
<g>
</g>
<g>
</g>
<g>
</g>
<g>
</g>
<g>
</g>
<g>
</g>
<g>
</g>
<g>
</g>
<g>
</g>
<g>
</g>
</svg>
