<?xml version="1.0" encoding="iso-8859-1"?>
<!-- Generator: Adobe Illustrator 19.0.0, SVG Export Plug-In . SVG Version: 6.00 Build 0)  -->
<svg version="1.1" id="Capa_1" xmlns="http://www.w3.org/2000/svg" xmlns:xlink="http://www.w3.org/1999/xlink" x="0px" y="0px"
	 viewBox="0 0 55.597 55.597" style="enable-background:new 0 0 55.597 55.597;" xml:space="preserve">
<path style="fill:#26B99A;" d="M55.458,50.307L40.678,25.082c-0.076-0.129,0.017-0.292,0.168-0.292h5.301c0.828,0,1.5,0.672,1.5,1.5
	v0c0,0.828,0.672,1.5,1.5,1.5h1c0.828,0,1.5-0.672,1.5-1.5v-7c0-0.828-0.672-1.5-1.5-1.5h-1c-0.828,0-1.5,0.672-1.5,1.5v0
	c0,0.828-0.672,1.5-1.5,1.5h-7.873c-0.069,0-0.133-0.037-0.168-0.096L28.49,4.282c-0.386-0.659-1.339-0.656-1.721,0.005
	l-9.493,16.406c-0.035,0.06-0.099,0.097-0.168,0.097h-7.96c-0.828,0-1.5-0.672-1.5-1.5v0c0-0.828-0.672-1.5-1.5-1.5h-1
	c-0.828,0-1.5,0.672-1.5,1.5v7c0,0.828,0.672,1.5,1.5,1.5h1c0.828,0,1.5-0.672,1.5-1.5v0c0-0.828,0.672-1.5,1.5-1.5h5.421
	c0.15,0,0.243,0.162,0.168,0.291l-14.6,25.23c-0.384,0.664,0.095,1.495,0.862,1.495h26.627h26.974
	C55.369,51.807,55.847,50.971,55.458,50.307z"/>
<polygon style="fill:#4C8056;" points="6.207,47.807 27.646,10.756 49.357,47.807 "/>
<g>
</g>
<g>
</g>
<g>
</g>
<g>
</g>
<g>
</g>
<g>
</g>
<g>
</g>
<g>
</g>
<g>
</g>
<g>
</g>
<g>
</g>
<g>
</g>
<g>
</g>
<g>
</g>
<g>
</g>
</svg>
