<?xml version="1.0" encoding="iso-8859-1"?>
<!-- Generator: Adobe Illustrator 19.0.0, SVG Export Plug-In . SVG Version: 6.00 Build 0)  -->
<svg version="1.1" id="Layer_1" xmlns="http://www.w3.org/2000/svg" xmlns:xlink="http://www.w3.org/1999/xlink" x="0px" y="0px"
	 viewBox="0 0 512 512" style="enable-background:new 0 0 512 512;" xml:space="preserve">
<g transform="translate(1 1)">
	<g>
		<g>
			<path d="M255-1C114.2-1-1,114.2-1,255s115.2,256,256,256s256-115.2,256-256S395.8-1,255-1z M255,493.933
				c-131.413,0-238.933-107.52-238.933-238.933S123.587,16.067,255,16.067S493.933,123.587,493.933,255S386.413,493.933,255,493.933
				z"/>
			<path d="M449.56,353.133l-93.867-153.6l-93.867-153.6c-3.413-5.12-11.093-5.12-14.507,0l-93.867,153.6l-93.867,153.6
				c-1.707,2.56-1.707,5.973,0,8.533s4.267,4.267,7.68,4.267H255h187.733c3.413,0,5.12-1.707,6.827-4.267
				S451.267,355.693,449.56,353.133z M254.573,341.264l-78.791-128.931h157.582L254.573,341.264z M255,66.413l78.507,128.853
				H176.493L255,66.413z M82.627,348.867l78.507-128.853l78.507,128.853H82.627z M270.36,348.867l78.507-128.853l78.507,128.853
				H270.36z"/>
		</g>
	</g>
</g>
<g>
</g>
<g>
</g>
<g>
</g>
<g>
</g>
<g>
</g>
<g>
</g>
<g>
</g>
<g>
</g>
<g>
</g>
<g>
</g>
<g>
</g>
<g>
</g>
<g>
</g>
<g>
</g>
<g>
</g>
</svg>
