<?xml version="1.0" encoding="iso-8859-1"?>
<!-- Generator: Adobe Illustrator 18.0.0, SVG Export Plug-In . SVG Version: 6.00 Build 0)  -->
<!DOCTYPE svg PUBLIC "-//W3C//DTD SVG 1.1//EN" "http://www.w3.org/Graphics/SVG/1.1/DTD/svg11.dtd">
<svg version="1.1" id="Capa_1" xmlns="http://www.w3.org/2000/svg" xmlns:xlink="http://www.w3.org/1999/xlink" x="0px" y="0px"
	 viewBox="0 0 471.817 471.817" style="enable-background:new 0 0 471.817 471.817;" xml:space="preserve">
<path d="M429.633,284.003l-25.964,25.956l-74.047-74.047l74.063-74.055l25.948,25.948c9.651,9.652,25.288,9.652,34.941,0
	c9.651-9.645,9.651-25.289,0-34.94l-43.419-43.425c-4.632-4.634-10.923-7.24-17.47-7.24c-6.548,0-12.837,2.606-17.471,7.24
	l-91.533,91.533l-23.824-23.825l91.533-91.533c4.634-4.634,7.239-10.915,7.239-17.471c0-6.555-2.605-12.837-7.239-17.469
	L318.957,7.246c-9.652-9.651-25.288-9.651-34.941,0c-9.651,9.653-9.651,25.297,0,34.941l25.965,25.956l-74.063,74.063
	l-74.063-74.072l25.948-25.956c9.651-9.651,9.651-25.296,0-34.94c-9.651-9.651-25.289-9.651-34.94,0l-43.418,43.427
	c-9.653,9.651-9.653,25.295,0,34.94l91.533,91.541l-23.825,23.825l-91.532-91.541c-9.267-9.266-25.675-9.266-34.94,0L7.244,152.864
	c-9.652,9.644-9.652,25.296,0,34.94c9.652,9.652,25.288,9.652,34.94,0l25.963-25.956l74.064,74.063l-74.064,74.055l-25.963-25.956
	c-9.652-9.651-25.288-9.651-34.94,0c-9.652,9.651-9.652,25.297,0,34.94l43.435,43.426c4.826,4.827,11.146,7.24,17.469,7.24
	s12.645-2.413,17.472-7.24l91.532-91.525l23.825,23.825l-91.533,91.525c-4.634,4.634-7.239,10.915-7.239,17.471
	c0,6.555,2.605,12.837,7.239,17.47l43.435,43.434c4.826,4.827,11.146,7.24,17.469,7.24c6.322,0,12.645-2.414,17.472-7.24
	c9.651-9.643,9.651-25.295,0-34.94l-25.965-25.963l74.063-74.055l74.047,74.055l-25.948,25.957c-9.651,9.651-9.651,25.295,0,34.939
	c4.827,4.826,11.149,7.24,17.472,7.24c6.322,0,12.643-2.414,17.47-7.24l43.418-43.426c9.652-9.651,9.652-25.296,0-34.94
	l-91.518-91.525l23.824-23.825l91.517,91.525c4.634,4.634,10.923,7.24,17.472,7.24c6.548,0,12.837-2.606,17.469-7.24l43.436-43.434
	c9.651-9.643,9.651-25.296,0-34.94C454.921,274.352,439.285,274.352,429.633,284.003z M235.917,259.737l-23.825-23.825
	l23.825-23.825l23.824,23.825L235.917,259.737z"/>
<g>
</g>
<g>
</g>
<g>
</g>
<g>
</g>
<g>
</g>
<g>
</g>
<g>
</g>
<g>
</g>
<g>
</g>
<g>
</g>
<g>
</g>
<g>
</g>
<g>
</g>
<g>
</g>
<g>
</g>
</svg>
