<?xml version="1.0" encoding="iso-8859-1"?>
<!-- Generator: Adobe Illustrator 19.0.0, SVG Export Plug-In . SVG Version: 6.00 Build 0)  -->
<svg version="1.1" id="Layer_1" xmlns="http://www.w3.org/2000/svg" xmlns:xlink="http://www.w3.org/1999/xlink" x="0px" y="0px"
	 viewBox="0 0 504.044 504.044" style="enable-background:new 0 0 504.044 504.044;" xml:space="preserve">
<path style="fill:#E8DDAF;" d="M480.035,252.03c0,125.928-102.085,228.005-228.013,228.005
	c-125.92,0-228.021-102.077-228.021-228.005c0-125.96,102.101-228.021,228.021-228.021
	C377.951,24.009,480.035,126.07,480.035,252.03z"/>
<path style="fill:#E2D498;" d="M252.022,24.009c125.928,0,228.013,102.061,228.013,228.021
	c0,125.928-102.085,228.005-228.013,228.005"/>
<path style="fill:#FF6510;" d="M252.022,499.728c-136.586,0-247.713-111.112-247.713-247.698
	c0-136.594,111.128-247.713,247.713-247.713c136.594,0,247.706,111.12,247.706,247.713
	C499.728,388.616,388.616,499.728,252.022,499.728z M252.022,43.701c-114.877,0-208.329,93.452-208.329,208.329
	c0,114.869,93.452,208.313,208.329,208.313s208.321-93.444,208.321-208.313C460.343,137.153,366.899,43.701,252.022,43.701z"/>
<path style="fill:#FF9D00;" d="M265.949,498.286c-3.552,3.56-8.476,5.758-13.926,5.758c-10.878,0-19.692-8.806-19.692-19.684V19.692
	C232.33,8.814,241.136,0,252.022,0c10.878,0,19.692,8.814,19.692,19.692v464.66C271.714,489.803,269.509,494.718,265.949,498.286z"
	/>
<path style="fill:#FF9D00;" d="M5.758,265.949C2.19,262.38,0,257.457,0,252.022c0-10.878,8.806-19.692,19.684-19.692h464.668
	c10.878,0,19.692,8.806,19.692,19.692c0,10.878-8.814,19.692-19.692,19.692H19.692C14.249,271.714,9.326,269.509,5.758,265.949z"/>
<g>
	<circle style="fill:#E8DDAF;" cx="313.068" cy="315.203" r="8.365"/>
	<circle style="fill:#E8DDAF;" cx="313.068" cy="347.199" r="8.365"/>
	<circle style="fill:#E8DDAF;" cx="313.068" cy="379.203" r="8.365"/>
</g>
<g>
</g>
<g>
</g>
<g>
</g>
<g>
</g>
<g>
</g>
<g>
</g>
<g>
</g>
<g>
</g>
<g>
</g>
<g>
</g>
<g>
</g>
<g>
</g>
<g>
</g>
<g>
</g>
<g>
</g>
</svg>
