<?xml version='1.0' encoding='utf-8'?>
<!DOCTYPE svg PUBLIC '-//W3C//DTD SVG 1.1//EN' 'http://www.w3.org/Graphics/SVG/1.1/DTD/svg11.dtd'>
<svg version="1.1" xmlns="http://www.w3.org/2000/svg" viewBox="0 0 512 512" xmlns:xlink="http://www.w3.org/1999/xlink" enable-background="new 0 0 512 512">
  <g>
    <g>
      <path d="m497.7,216.2c-29.3,51.9-72,107.1-123.2,158.3-51.2,51.2-106.3,93.9-158.3,123.2 13,2.1 26.2,3.3 39.8,3.3 135.1,0 245-109.9 245-245 0-13.5-1.2-26.8-3.3-39.8z"/>
      <path d="m476.3,169.2c37.8-79.8 23.2-119.1 4.4-137.9-17.7-17.6-54-32-126.8-0.6-0.3,0.1-0.6,0.4-1,0.5-29.7-12.9-62.4-20.2-96.9-20.2-135.1,0-245,109.9-245,245 0,34.8 7.4,68 20.6,98-1.2,1.5-2.3,3.1-3.1,5-28.6,69.6-14.3,104.6 2.8,121.7 0,0 0.1,0 0.1,0.1 30.1,34.3 101.3,12.8 137.8-4.5 56-26.5 118.6-72.9 176.4-130.7 57.8-57.7 104.2-120.4 130.7-176.4zm-324.5,270.2c-52,24.6-81.4,22.6-91.5,12.4-8.7-8.7-9.4-27.6-2.5-52.5 2.1,2.9 8.7,17.6 25.9,18.8 5.3,0.4 20.9-1.6 50.7-15.6 47.7-22.6 102.3-63.3 153.6-114.6 51.3-51.3 92-105.9 114.6-153.6 12.9-27.3 15.3-43.9 15.7-50.6 1-16.7-15.9-23.9-18.7-25.9 24.7-6.8 43.8-6.2 52.4,2.4 10.1,10.1 12.2,39.5-12.4,91.6-24.5,51.8-68.1,110.4-122.6,165-54.8,54.5-113.4,98-165.2,122.6z"/>
    </g>
  </g>
</svg>
